<svg width="53" height="58" viewBox="0 0 53 58" fill="none" xmlns="http://www.w3.org/2000/svg">
<path d="M26.5484 57.8C22.9751 57.8 20.0418 56.52 17.7484 53.96C15.4551 51.3467 13.4018 47.1333 11.5884 41.32L0.388438 5.08C0.175104 4.22666 0.0684377 3.64 0.0684377 3.32C0.0684377 1.24 1.48177 0.199997 4.30844 0.199997C5.74844 0.199997 6.8151 0.49333 7.50844 1.08C8.2551 1.61333 8.84177 2.54667 9.26844 3.88L20.4684 40.6C21.5351 44.2267 22.5218 46.8133 23.4284 48.36C24.3884 49.8533 25.4284 50.6 26.5484 50.6C27.6151 50.6 28.6018 49.8533 29.5084 48.36C30.4684 46.8133 31.5084 44.2267 32.6284 40.6L43.7484 3.88C44.1751 2.54667 44.7351 1.61333 45.4284 1.08C46.1751 0.49333 47.2684 0.199997 48.7084 0.199997C51.5351 0.199997 52.9484 1.21333 52.9484 3.24C52.9484 3.82666 52.8418 4.44 52.6284 5.08L41.4284 41.32C39.5618 47.24 37.4818 51.48 35.1884 54.04C32.9484 56.5467 30.0684 57.8 26.5484 57.8Z" fill="#2D3463"/>
</svg>
